<svg width="96" height="96" viewBox="0 0 96 96" fill="none" xmlns="http://www.w3.org/2000/svg">
<path d="M81.9365 81.9365C100.688 63.1851 100.688 32.8149 81.9365 14.0635C63.1851 -4.68784 32.8149 -4.68784 14.0635 14.0635C-4.68784 32.8149 -4.68784 63.1851 14.0635 81.9365C32.8149 100.688 63.1851 100.688 81.9365 81.9365ZM31.4344 40.6375C28.9035 38.1066 28.9035 33.9652 31.4344 31.4344C33.9653 28.9035 38.1066 28.9035 40.6375 31.4344L48 38.7969L55.3625 31.4344C57.8934 28.9035 62.0348 28.9035 64.5656 31.4344C67.0965 33.9652 67.0965 38.1066 64.5656 40.6375L57.2031 48L64.5656 55.3625C67.0965 57.8934 67.0965 62.0348 64.5656 64.5656C62.0348 67.0965 57.8934 67.0965 55.3625 64.5656L48 57.2031L40.6375 64.5656C38.1066 67.0965 33.9652 67.0965 31.4344 64.5656C28.9035 62.0348 28.9035 57.8934 31.4344 55.3625L38.7969 48L31.4344 40.6375Z" fill="#FFD8DD"/>
<path d="M31.4344 40.6375C28.9035 38.1066 28.9035 33.9652 31.4344 31.4344C33.9653 28.9035 38.1066 28.9035 40.6375 31.4344L48 38.7969L55.3625 31.4344C57.8934 28.9035 62.0348 28.9035 64.5656 31.4344C67.0965 33.9652 67.0965 38.1066 64.5656 40.6375L57.2031 48L64.5656 55.3625C67.0965 57.8934 67.0965 62.0348 64.5656 64.5656C62.0348 67.0965 57.8934 67.0965 55.3625 64.5656L48 57.2031L40.6375 64.5656C38.1066 67.0965 33.9652 67.0965 31.4344 64.5656C28.9035 62.0348 28.9035 57.8934 31.4344 55.3625L38.7969 48L31.4344 40.6375Z" fill="#F2465C"/>
</svg>
