<svg width="98" height="98" viewBox="0 0 98 98" fill="none" xmlns="http://www.w3.org/2000/svg">
<path fill-rule="evenodd" clip-rule="evenodd" d="M49.0198 0.902344C75.594 0.902344 97.1451 22.4534 97.1451 49.0276C97.1451 75.6018 75.594 97.1529 49.0198 97.1529C22.4456 97.1529 0.894531 75.6018 0.894531 49.0276C0.894531 22.4534 22.4456 0.902344 49.0198 0.902344ZM39.026 64.6591L27.2437 52.8671C25.2365 50.8586 25.236 47.5833 27.2437 45.5753C29.2519 43.5676 32.5417 43.5801 34.5352 45.5753L42.8416 53.8882L63.5052 33.2246C65.5133 31.2165 68.7889 31.2165 70.7966 33.2246C72.8047 35.2323 72.8019 38.5108 70.7966 40.5161L46.4815 64.8313C44.4762 66.8365 41.1977 66.8394 39.19 64.8313C39.1336 64.7748 39.0792 64.7175 39.026 64.6591Z" fill="#DBF2DD"/>
<path d="M39.026 64.6591L27.2437 52.8671C25.2365 50.8586 25.236 47.5833 27.2437 45.5753C29.2519 43.5676 32.5417 43.5801 34.5352 45.5753L42.8416 53.8882L63.5052 33.2246C65.5133 31.2165 68.7889 31.2165 70.7966 33.2246C72.8047 35.2323 72.8019 38.5108 70.7966 40.5161L46.4815 64.8313C44.4762 66.8365 41.1977 66.8394 39.19 64.8313C39.1336 64.7748 39.0792 64.7175 39.026 64.6591Z" fill="#4CBC55"/>
</svg>
